<svg width="216" height="153" viewBox="0 0 216 153" fill="none" xmlns="http://www.w3.org/2000/svg">
<path fill-rule="evenodd" clip-rule="evenodd" d="M30.639 79.3538C29.8518 78.3417 29.1117 77.3885 28.4538 76.5059C34.8622 68.0038 41.9458 60.0342 49.6356 52.675C66.0476 37.0585 86.7007 23.5484 108 23.5484C129.299 23.5484 149.941 37.0585 166.364 52.675C174.054 60.0346 181.137 68.0041 187.546 76.5059C181.134 85.005 174.051 92.9742 166.364 100.337C149.941 115.953 129.299 129.463 108 129.463C86.7007 129.463 66.0594 115.953 49.6356 100.337C42.8107 93.8064 36.4622 86.7941 30.639 79.3538ZM211.829 70.0804L201.985 76.5059L211.829 82.9314L211.806 82.9667L211.771 83.0138L211.653 83.2021L211.219 83.8376C208.863 87.2631 206.403 90.6147 203.841 93.8877C197.316 102.226 190.202 110.084 182.553 117.401C164.955 134.147 138.615 153 108 153C77.3845 153 51.0454 134.147 33.4468 117.401C22.7983 107.199 13.1954 95.9549 4.78146 83.8376C4.63542 83.6265 4.49053 83.4147 4.34679 83.2021L4.22931 83.0138L4.19406 82.9667L4.18231 82.9432C4.18231 82.9314 4.17057 82.9314 14.0154 76.5059L4.17056 70.0804L4.19406 70.0451L4.22931 69.998L4.34679 69.8097C4.99151 68.8342 5.6574 67.8729 6.34396 66.9265C14.3846 55.6652 23.4626 45.1846 33.4585 35.6227C51.0336 18.8411 77.3845 0 108 0C138.615 0 164.955 18.8529 182.553 35.5992C193.202 45.8012 202.805 57.045 211.219 69.1625L211.653 69.7979L211.771 69.9862L211.806 70.0333L211.818 70.0568L211.829 70.0804ZM201.985 76.5059L211.829 70.0804L216 76.5059L211.829 82.9314L201.985 76.5059ZM4.17056 70.0804L14.0154 76.5059L4.17056 82.9314L0 76.5059L4.17056 70.0804ZM96.2519 76.5059C96.2519 73.3847 97.4897 70.3914 99.6929 68.1844C101.896 65.9774 104.884 64.7376 108 64.7376C111.116 64.7376 114.104 65.9774 116.307 68.1844C118.51 70.3914 119.748 73.3847 119.748 76.5059C119.748 79.627 118.51 82.6204 116.307 84.8273C114.104 87.0343 111.116 88.2742 108 88.2742C104.884 88.2742 101.896 87.0343 99.6929 84.8273C97.4897 82.6204 96.2519 79.627 96.2519 76.5059ZM108 41.2009C98.6526 41.2009 89.6881 44.9205 83.0786 51.5415C76.469 58.1625 72.7558 67.1424 72.7558 76.5059C72.7558 85.8693 76.469 94.8493 83.0786 101.47C89.6881 108.091 98.6526 111.811 108 111.811C117.347 111.811 126.312 108.091 132.921 101.47C139.531 94.8493 143.244 85.8693 143.244 76.5059C143.244 67.1424 139.531 58.1625 132.921 51.5415C126.312 44.9205 117.347 41.2009 108 41.2009Z" fill="#BDFF00"/>
</svg>
